<svg width="26" height="27" viewBox="0 0 26 27" fill="none" xmlns="http://www.w3.org/2000/svg">
<path id="Vector" d="M26 13.1897C25.992 19.7647 21.083 25.3017 14.556 26.0967C14.414 26.1137 14.272 26.0677 14.166 25.9727C14.059 25.8767 13.999 25.7397 14 25.5967V16.1897H17C17.277 16.1907 17.542 16.0757 17.732 15.8737C17.921 15.6717 18.018 15.3997 18 15.1237C17.954 14.5897 17.504 14.1827 16.969 14.1897H14V11.1897C14 10.0847 14.895 9.1897 16 9.1897H18C18.277 9.1907 18.542 9.0757 18.732 8.8737C18.921 8.6717 19.018 8.3997 19 8.1237C18.954 7.5887 18.503 7.1807 17.966 7.1897H16C13.791 7.1897 12 8.9807 12 11.1897V14.1897H9C8.723 14.1887 8.458 14.3037 8.268 14.5057C8.079 14.7077 7.982 14.9797 8 15.2557C8.046 15.7907 8.497 16.1987 9.034 16.1897H12V25.5997C12.001 25.7427 11.941 25.8787 11.835 25.9747C11.729 26.0697 11.587 26.1157 11.445 26.0997C4.731 25.2817 -0.238 19.4597 0.00900021 12.7007C0.259 5.9507 5.726 0.463699 12.481 0.200699C16.015 0.0636988 19.452 1.3707 22.002 3.8207C24.552 6.2707 25.996 9.6537 26 13.1897Z" fill="#EEDDD3"/>
</svg>
