<svg width="32" height="33" viewBox="0 0 32 33" fill="none" xmlns="http://www.w3.org/2000/svg">
<g id="image" clip-path="url(#clip0_1_208)">
<path id="Vector" d="M12 16.1899C12 13.9809 13.791 12.1899 16 12.1899C18.209 12.1899 20 13.9809 20 16.1899C20 18.3989 18.209 20.1899 16 20.1899C13.791 20.1899 12 18.3989 12 16.1899Z" fill="#EEDDD3"/>
<path id="Vector_2" d="M21.5 3.68994H10.5C6.634 3.68994 3.5 6.82394 3.5 10.6899V21.6899C3.5 25.5559 6.634 28.6899 10.5 28.6899H21.5C25.366 28.6899 28.5 25.5559 28.5 21.6899V10.6899C28.5 6.82394 25.366 3.68994 21.5 3.68994ZM16 22.1899C12.686 22.1899 10 19.5039 10 16.1899C10 12.8759 12.686 10.1899 16 10.1899C19.314 10.1899 22 12.8759 22 16.1899C22 19.5039 19.314 22.1899 16 22.1899ZM22.5 11.1899C21.672 11.1899 21 10.5179 21 9.68994C21 8.86194 21.672 8.18994 22.5 8.18994C23.328 8.18994 24 8.86194 24 9.68994C24 10.5179 23.328 11.1899 22.5 11.1899Z" fill="#EEDDD3"/>
</g>
<defs>
<clipPath id="clip0_1_208">
<rect width="32" height="32" fill="white" transform="translate(0 0.189941)"/>
</clipPath>
</defs>
</svg>
