<svg width="32" height="33" viewBox="0 0 32 33" fill="none" xmlns="http://www.w3.org/2000/svg">
<g id="image" clip-path="url(#clip0_1_204)">
<path id="Vector" d="M30.713 9.90206L26.938 13.6651C26.188 22.4021 18.813 29.1901 10 29.1901C8.188 29.1901 6.688 28.9021 5.55 28.3401C4.638 27.8771 4.263 27.3901 4.163 27.2401C3.995 26.9851 3.953 26.6681 4.047 26.3791C4.142 26.0891 4.364 25.8581 4.65 25.7521C4.675 25.7401 7.625 24.6151 9.538 22.4521C8.351 21.6081 7.309 20.5781 6.45 19.4021C4.738 17.0771 2.925 13.0401 4.013 7.01506C4.082 6.65006 4.346 6.35306 4.7 6.24006C5.055 6.12406 5.446 6.21506 5.713 6.47706C5.75 6.52706 9.913 10.6271 15 11.9521V11.1901C15.01 9.58906 15.656 8.05706 16.795 6.93206C17.934 5.80706 19.474 5.18006 21.075 5.19006C23.192 5.22006 25.137 6.35906 26.2 8.19006H30C30.404 8.18906 30.769 8.43006 30.925 8.80206C31.072 9.17906 30.989 9.60706 30.713 9.90206Z" fill="#EEDDD3"/>
</g>
<defs>
<clipPath id="clip0_1_204">
<rect width="32" height="32" fill="white" transform="translate(0 0.189941)"/>
</clipPath>
</defs>
</svg>
